<svg width="21" height="20" viewBox="0 0 21 20" fill="none" xmlns="http://www.w3.org/2000/svg">
<path d="M15.75 4H20.75V6H18.75V19C18.75 19.2652 18.6446 19.5196 18.4571 19.7071C18.2696 19.8946 18.0152 20 17.75 20H3.75C3.48478 20 3.23043 19.8946 3.04289 19.7071C2.85536 19.5196 2.75 19.2652 2.75 19V6H0.75V4H5.75V1C5.75 0.734784 5.85536 0.48043 6.04289 0.292893C6.23043 0.105357 6.48478 0 6.75 0H14.75C15.0152 0 15.2696 0.105357 15.4571 0.292893C15.6446 0.48043 15.75 0.734784 15.75 1V4ZM16.75 6H4.75V18H16.75V6ZM12.164 12L13.932 13.768L12.518 15.182L10.75 13.414L8.982 15.182L7.568 13.768L9.336 12L7.568 10.232L8.982 8.818L10.75 10.586L12.518 8.818L13.932 10.232L12.164 12ZM7.75 2V4H13.75V2H7.75Z" fill="#D7226A"/>
</svg>
