<svg width="20" height="20" viewBox="0 0 20 20" fill="none" xmlns="http://www.w3.org/2000/svg">
<path d="M2.41085 12.5259L5.81249 9.12422L8.6409 11.9527L11.7978 8.79582L10.0049 7.00293H15.0049V12.0029L13.212 10.21L8.6409 14.7811L5.81249 11.9527L3.33834 14.4268C4.77158 16.5823 7.22233 18.0029 10.0049 18.0029C14.4232 18.0029 18.0049 14.4212 18.0049 10.0029C18.0049 5.58465 14.4232 2.00293 10.0049 2.00293C5.5866 2.00293 2.00488 5.58465 2.00488 10.0029C2.00488 10.8845 2.14747 11.7327 2.41085 12.5259ZM0.872883 14.0841L0.862753 14.074L0.866623 14.0701C0.312763 12.8275 0.00488281 11.4512 0.00488281 10.0029C0.00488281 4.48008 4.48204 0.00292969 10.0049 0.00292969C15.5277 0.00292969 20.0049 4.48008 20.0049 10.0029C20.0049 15.5258 15.5277 20.0029 10.0049 20.0029C5.93574 20.0029 2.43426 17.5725 0.872883 14.0841Z" fill="black"/>
</svg>
