<svg width="52" height="52" viewBox="0 0 52 52" fill="none" xmlns="http://www.w3.org/2000/svg">
<rect width="52" height="52" rx="12" fill="#F5F5F5"/>
<path fill-rule="evenodd" clip-rule="evenodd" d="M18.0105 13.0308C18.3293 12.9366 18.672 13.0635 18.8526 13.3426L24.0979 21.4489H33.8737V13.7501C33.8737 13.3358 34.2095 13.0001 34.6237 13.0001C35.0379 13.0001 35.3737 13.3358 35.3737 13.7501V21.4489H39.0966C39.5108 21.4489 39.8466 21.7847 39.8466 22.1989C39.8466 22.6132 39.5108 22.9489 39.0966 22.9489H35.3737V29.8978H39.0966C39.5108 29.8978 39.8466 30.2336 39.8466 30.6478C39.8466 31.062 39.5108 31.3978 39.0966 31.3978H35.3737V39.0967C35.3737 39.4291 35.1549 39.7218 34.8361 39.816C34.5173 39.9101 34.1746 39.7832 33.994 39.5041L28.7488 31.3978H18.9729V39.0967C18.9729 39.5109 18.6371 39.8467 18.2229 39.8467C17.8087 39.8467 17.4729 39.5109 17.4729 39.0967V31.3978H13.75C13.3358 31.3978 13 31.062 13 30.6478C13 30.2336 13.3358 29.8978 13.75 29.8978H17.4729V22.9489H13.75C13.3358 22.9489 13 22.6132 13 22.1989C13 21.7847 13.3358 21.4489 13.75 21.4489H17.4729V13.7501C17.4729 13.4177 17.6917 13.1249 18.0105 13.0308ZM18.9729 16.2897V21.4489H22.3112L18.9729 16.2897ZM23.2818 22.9489H18.9729V29.8978H27.7782L23.2818 22.9489ZM30.5354 31.3978L33.8737 36.557V31.3978H30.5354ZM33.8737 29.8978H29.5648L25.0685 22.9489H33.8737V29.8978Z" fill="#96989A"/>
<path d="M18.8526 13.3426L20.112 12.5277V12.5277L18.8526 13.3426ZM18.0105 13.0308L17.5857 11.5922L17.5857 11.5922L18.0105 13.0308ZM24.0979 21.4489L22.8385 22.2638C23.1149 22.691 23.5891 22.9489 24.0979 22.9489V21.4489ZM33.8737 21.4489V22.9489C34.7021 22.9489 35.3737 22.2774 35.3737 21.4489H33.8737ZM35.3737 21.4489H33.8737C33.8737 22.2774 34.5453 22.9489 35.3737 22.9489V21.4489ZM35.3737 22.9489V21.4489C34.5453 21.4489 33.8737 22.1205 33.8737 22.9489H35.3737ZM35.3737 29.8978H33.8737C33.8737 30.7262 34.5453 31.3978 35.3737 31.3978V29.8978ZM35.3737 31.3978V29.8978C34.5453 29.8978 33.8737 30.5694 33.8737 31.3978H35.3737ZM34.8361 39.816L34.4113 38.3774L34.4113 38.3774L34.8361 39.816ZM33.994 39.5041L32.7347 40.319L32.7347 40.319L33.994 39.5041ZM28.7488 31.3978L30.0081 30.5829C29.7317 30.1558 29.2576 29.8978 28.7488 29.8978V31.3978ZM18.9729 31.3978V29.8978C18.1445 29.8978 17.4729 30.5694 17.4729 31.3978H18.9729ZM17.4729 31.3978H18.9729C18.9729 30.5694 18.3014 29.8978 17.4729 29.8978V31.3978ZM17.4729 29.8978V31.3978C18.3014 31.3978 18.9729 30.7262 18.9729 29.8978H17.4729ZM17.4729 22.9489H18.9729C18.9729 22.1205 18.3014 21.4489 17.4729 21.4489V22.9489ZM17.4729 21.4489V22.9489C18.3014 22.9489 18.9729 22.2774 18.9729 21.4489H17.4729ZM18.9729 21.4489H17.4729C17.4729 22.2774 18.1445 22.9489 18.9729 22.9489V21.4489ZM18.9729 16.2897L20.2323 15.4749C19.8711 14.9167 19.1857 14.6629 18.5481 14.8511C17.9105 15.0394 17.4729 15.6249 17.4729 16.2897H18.9729ZM22.3112 21.4489V22.9489C22.8608 22.9489 23.3663 22.6485 23.6289 22.1658C23.8915 21.6831 23.8691 21.0954 23.5706 20.6341L22.3112 21.4489ZM18.9729 22.9489V21.4489C18.1445 21.4489 17.4729 22.1205 17.4729 22.9489H18.9729ZM23.2818 22.9489L24.5412 22.1341C24.2648 21.7069 23.7907 21.4489 23.2818 21.4489V22.9489ZM18.9729 29.8978H17.4729C17.4729 30.7262 18.1445 31.3978 18.9729 31.3978V29.8978ZM27.7782 29.8978V31.3978C28.3277 31.3978 28.8332 31.0973 29.0958 30.6146C29.3584 30.1319 29.336 29.5443 29.0375 29.0829L27.7782 29.8978ZM33.8737 36.557L32.6143 37.3719C32.9755 37.9301 33.661 38.1839 34.2985 37.9956C34.9361 37.8073 35.3737 37.2218 35.3737 36.557H33.8737ZM30.5354 31.3978V29.8978C29.9859 29.8978 29.4804 30.1983 29.2178 30.681C28.9552 31.1637 28.9775 31.7513 29.276 32.2127L30.5354 31.3978ZM33.8737 31.3978H35.3737C35.3737 30.5694 34.7021 29.8978 33.8737 29.8978V31.3978ZM33.8737 29.8978V31.3978C34.7021 31.3978 35.3737 30.7262 35.3737 29.8978H33.8737ZM29.5648 29.8978L28.3054 30.7127C28.5819 31.1399 29.056 31.3978 29.5648 31.3978V29.8978ZM25.0685 22.9489V21.4489C24.519 21.4489 24.0134 21.7494 23.7508 22.2321C23.4882 22.7148 23.5106 23.3025 23.8091 23.7638L25.0685 22.9489ZM33.8737 22.9489H35.3737C35.3737 22.1205 34.7021 21.4489 33.8737 21.4489V22.9489ZM20.112 12.5277C19.5702 11.6905 18.5421 11.3098 17.5857 11.5922L18.4354 14.4694C18.1166 14.5635 17.7738 14.4366 17.5933 14.1575L20.112 12.5277ZM25.3572 20.6341L20.112 12.5277L17.5933 14.1575L22.8385 22.2638L25.3572 20.6341ZM33.8737 19.9489H24.0979V22.9489H33.8737V19.9489ZM32.3737 13.7501V21.4489H35.3737V13.7501H32.3737ZM34.6237 11.5001C33.3811 11.5001 32.3737 12.5074 32.3737 13.7501H35.3737C35.3737 14.1643 35.0379 14.5001 34.6237 14.5001V11.5001ZM36.8737 13.7501C36.8737 12.5074 35.8663 11.5001 34.6237 11.5001V14.5001C34.2095 14.5001 33.8737 14.1643 33.8737 13.7501H36.8737ZM36.8737 21.4489V13.7501H33.8737V21.4489H36.8737ZM39.0966 19.9489H35.3737V22.9489H39.0966V19.9489ZM41.3466 22.1989C41.3466 20.9563 40.3393 19.9489 39.0966 19.9489V22.9489C38.6824 22.9489 38.3466 22.6132 38.3466 22.1989H41.3466ZM39.0966 24.4489C40.3393 24.4489 41.3466 23.4416 41.3466 22.1989H38.3466C38.3466 21.7847 38.6824 21.4489 39.0966 21.4489V24.4489ZM35.3737 24.4489H39.0966V21.4489H35.3737V24.4489ZM36.8737 29.8978V22.9489H33.8737V29.8978H36.8737ZM39.0966 28.3978H35.3737V31.3978H39.0966V28.3978ZM41.3466 30.6478C41.3466 29.4052 40.3393 28.3978 39.0966 28.3978V31.3978C38.6824 31.3978 38.3466 31.062 38.3466 30.6478H41.3466ZM39.0966 32.8978C40.3393 32.8978 41.3466 31.8905 41.3466 30.6478H38.3466C38.3466 30.2336 38.6824 29.8978 39.0966 29.8978V32.8978ZM35.3737 32.8978H39.0966V29.8978H35.3737V32.8978ZM36.8737 39.0967V31.3978H33.8737V39.0967H36.8737ZM35.2609 41.2546C36.2173 40.9721 36.8737 40.0939 36.8737 39.0967H33.8737C33.8737 38.7643 34.0925 38.4715 34.4113 38.3774L35.2609 41.2546ZM32.7347 40.319C33.2764 41.1562 34.3046 41.537 35.261 41.2546L34.4113 38.3774C34.7301 38.2833 35.0728 38.4102 35.2534 38.6893L32.7347 40.319ZM27.4894 32.2127L32.7347 40.319L35.2534 38.6893L30.0081 30.5829L27.4894 32.2127ZM18.9729 32.8978H28.7488V29.8978H18.9729V32.8978ZM20.4729 39.0967V31.3978H17.4729V39.0967H20.4729ZM18.2229 41.3467C19.4656 41.3467 20.4729 40.3393 20.4729 39.0967H17.4729C17.4729 38.6825 17.8087 38.3467 18.2229 38.3467V41.3467ZM15.9729 39.0967C15.9729 40.3393 16.9803 41.3467 18.2229 41.3467V38.3467C18.6371 38.3467 18.9729 38.6825 18.9729 39.0967H15.9729ZM15.9729 31.3978V39.0967H18.9729V31.3978H15.9729ZM13.75 32.8978H17.4729V29.8978H13.75V32.8978ZM11.5 30.6478C11.5 31.8905 12.5074 32.8978 13.75 32.8978V29.8978C14.1642 29.8978 14.5 30.2336 14.5 30.6478H11.5ZM13.75 28.3978C12.5074 28.3978 11.5 29.4052 11.5 30.6478H14.5C14.5 31.062 14.1642 31.3978 13.75 31.3978V28.3978ZM17.4729 28.3978H13.75V31.3978H17.4729V28.3978ZM15.9729 22.9489V29.8978H18.9729V22.9489H15.9729ZM13.75 24.4489H17.4729V21.4489H13.75V24.4489ZM11.5 22.1989C11.5 23.4416 12.5074 24.4489 13.75 24.4489V21.4489C14.1642 21.4489 14.5 21.7847 14.5 22.1989H11.5ZM13.75 19.9489C12.5074 19.9489 11.5 20.9563 11.5 22.1989H14.5C14.5 22.6132 14.1642 22.9489 13.75 22.9489V19.9489ZM17.4729 19.9489H13.75V22.9489H17.4729V19.9489ZM15.9729 13.7501V21.4489H18.9729V13.7501H15.9729ZM17.5857 11.5922C16.6293 11.8746 15.9729 12.7529 15.9729 13.7501H18.9729C18.9729 14.0825 18.7541 14.3752 18.4354 14.4694L17.5857 11.5922ZM20.4729 21.4489V16.2897H17.4729V21.4489H20.4729ZM22.3112 19.9489H18.9729V22.9489H22.3112V19.9489ZM17.7136 17.1046L21.0519 22.2638L23.5706 20.6341L20.2323 15.4749L17.7136 17.1046ZM18.9729 24.4489H23.2818V21.4489H18.9729V24.4489ZM20.4729 29.8978V22.9489H17.4729V29.8978H20.4729ZM27.7782 28.3978H18.9729V31.3978H27.7782V28.3978ZM22.0225 23.7638L26.5188 30.7127L29.0375 29.0829L24.5412 22.1341L22.0225 23.7638ZM35.1331 35.7422L31.7947 30.5829L29.276 32.2127L32.6143 37.3719L35.1331 35.7422ZM32.3737 31.3978V36.557H35.3737V31.3978H32.3737ZM30.5354 32.8978H33.8737V29.8978H30.5354V32.8978ZM33.8737 28.3978H29.5648V31.3978H33.8737V28.3978ZM30.8242 29.0829L26.3278 22.1341L23.8091 23.7638L28.3054 30.7127L30.8242 29.0829ZM25.0685 24.4489H33.8737V21.4489H25.0685V24.4489ZM32.3737 22.9489V29.8978H35.3737V22.9489H32.3737Z" fill="#96989A"/>
</svg>
