<svg width="18" height="18" viewBox="0 0 18 18" fill="none" xmlns="http://www.w3.org/2000/svg">
<path d="M13.1665 3.99935H17.3332V5.66602H15.6665V16.4993C15.6665 16.7204 15.5787 16.9323 15.4224 17.0886C15.2661 17.2449 15.0542 17.3327 14.8332 17.3327H3.1665C2.94549 17.3327 2.73353 17.2449 2.57725 17.0886C2.42097 16.9323 2.33317 16.7204 2.33317 16.4993V5.66602H0.666504V3.99935H4.83317V1.49935C4.83317 1.27834 4.92097 1.06637 5.07725 0.910093C5.23353 0.753813 5.44549 0.666016 5.6665 0.666016H12.3332C12.5542 0.666016 12.7661 0.753813 12.9224 0.910093C13.0787 1.06637 13.1665 1.27834 13.1665 1.49935V3.99935ZM13.9998 5.66602H3.99984V15.666H13.9998V5.66602ZM6.49984 2.33268V3.99935H11.4998V2.33268H6.49984Z" fill="#616161"/>
</svg>
