<svg width="20" height="21" viewBox="0 0 20 21" fill="none" xmlns="http://www.w3.org/2000/svg">
<path d="M12.368 3.39795L8.88399 9.43295L10.616 10.4329L14.1 4.39795C18.27 7.16995 20.406 11.4779 18.66 14.4999C16.8 17.7219 11.471 17.8549 6.74999 15.1299C2.02899 12.4019 -0.520006 7.72095 1.33999 4.49995C3.08499 1.47695 7.88299 1.17295 12.368 3.39795ZM13.884 0.772949L15.616 1.77295L14.116 4.37095L12.384 3.37095L13.884 0.772949ZM4.73199 18.9999H15V20.9999H3.01699C2.83849 21.0035 2.66232 20.9589 2.50696 20.871C2.35161 20.783 2.22278 20.6548 2.13399 20.4999C2.04671 20.3478 2.00079 20.1754 2.00079 19.9999C2.00079 19.8245 2.04671 19.6521 2.13399 19.4999L4.38399 15.603L6.11599 16.603L4.73199 18.9999Z" fill="#2B51A6"/>
</svg>
