<svg width="20" height="21" viewBox="0 0 20 21" fill="none" xmlns="http://www.w3.org/2000/svg">
<path d="M12.3679 3.39801L8.8839 9.43301L10.6159 10.433L14.0999 4.39801C18.2699 7.17001 20.4059 11.478 18.6599 14.5C16.7999 17.722 11.4709 17.855 6.7499 15.13C2.0289 12.402 -0.520098 7.72101 1.3399 4.50001C3.0849 1.47701 7.8829 1.17301 12.3679 3.39801ZM13.8839 0.77301L15.6159 1.77301L14.1159 4.37101L12.3839 3.37101L13.8839 0.77301ZM4.7319 19H14.9999V21H3.0169C2.8384 21.0036 2.66223 20.959 2.50687 20.871C2.35151 20.7831 2.22269 20.6549 2.1339 20.5C2.04662 20.3478 2.0007 20.1754 2.0007 20C2.0007 19.8246 2.04662 19.6522 2.1339 19.5L4.3839 15.603L6.1159 16.603L4.7319 19Z" fill="#D7226A"/>
</svg>
