<svg width="20" height="21" viewBox="0 0 20 21" fill="none" xmlns="http://www.w3.org/2000/svg">
<path d="M10.5059 2.62295L9.4829 4.39495C6.5729 3.51595 3.9689 3.94495 3.0719 5.49995C1.8939 7.53995 3.8619 11.1519 7.7499 13.3969C11.6379 15.6419 15.7499 15.5389 16.9279 13.4999C17.8259 11.9449 16.8949 9.47595 14.6789 7.39495L15.7019 5.62295C18.7839 8.33195 20.1649 11.8929 18.6599 14.4999C16.7999 17.7219 11.4709 17.8549 6.7499 15.1299C2.0289 12.4019 -0.520098 7.72095 1.3399 4.49995C2.8449 1.89295 6.6199 1.30795 10.5059 2.62295ZM13.8839 0.772949L15.6159 1.77295L10.6159 10.4329L8.8839 9.43295L13.8839 0.772949ZM4.7319 18.9999H14.9999V20.9999H3.0169C2.8384 21.0035 2.66223 20.9589 2.50687 20.871C2.35151 20.783 2.22269 20.6548 2.1339 20.4999C2.04662 20.3478 2.0007 20.1754 2.0007 19.9999C2.0007 19.8245 2.04662 19.6521 2.1339 19.4999L4.3839 15.603L6.1159 16.603L4.7319 18.9999Z" fill="black"/>
</svg>
