<svg width="64" height="64" viewBox="0 0 64 64" fill="none" xmlns="http://www.w3.org/2000/svg">
<g opacity="0.6">
<path d="M11.7621 38.7355L20.8332 29.6643L28.3756 37.2069L36.794 28.7885L32.0129 24.0075H45.3462V37.3408L40.5652 32.5597L28.3756 44.7493L20.8332 37.2069L14.2354 43.8045C18.0574 49.5525 24.5927 53.3408 32.0129 53.3408C43.795 53.3408 53.3462 43.7896 53.3462 32.0075C53.3462 20.2254 43.795 10.6742 32.0129 10.6742C20.2308 10.6742 10.6795 20.2254 10.6795 32.0075C10.6795 34.3584 11.0598 36.6203 11.7621 38.7355ZM7.66086 42.8907L7.63384 42.8637L7.64416 42.8533C6.1672 39.5397 5.34619 35.8696 5.34619 32.0075C5.34619 17.2799 17.2853 5.34082 32.0129 5.34082C46.7404 5.34082 58.6796 17.2799 58.6796 32.0075C58.6796 46.7352 46.7404 58.6741 32.0129 58.6741C21.1618 58.6741 11.8245 52.1931 7.66086 42.8907Z" fill="black"/>
</g>
</svg>
