<svg width="108" height="24" viewBox="0 0 108 24" fill="none" xmlns="http://www.w3.org/2000/svg">
<path d="M10.9165 0.00219891C15.3453 -0.0996063 18.8661 3.35368 19.8371 6.18981L19.6031 6.4422C18.0253 5.38796 16.2567 4.43216 11.4626 4.43216C4.42322 4.43216 1.14626 8.61939 1.14626 12.5032C1.14626 14.3237 1.87447 16.9939 5.09075 16.9939C9.52072 16.9939 16.6167 9.70246 19.0482 7.0416C22.2645 3.52189 25.2987 0.912459 30.2141 0.912459C37.1322 0.912459 40.4698 6.73818 40.4698 11.8357C40.4698 16.9332 37.2535 22.0307 32.0347 22.0307C26.5731 22.0307 24.1457 17.2344 23.8423 16.3848L24.1172 15.9464C24.9446 16.796 28.0902 18.693 32.0347 18.693C37.9211 18.693 39.9843 14.5665 39.9843 11.8357C39.9843 10.804 39.4989 6.73818 34.8261 6.73818C29.7893 6.73818 27.1799 11.1075 24.1457 15.9015C21.1115 20.6956 16.8029 23.9726 10.9165 23.9726C5.03007 23.9726 0.600098 19.2392 0.600098 12.5032C0.600098 4.06805 5.63691 0.12356 10.9165 0.00219891Z" fill="url(#paint0_linear_1104_6269)"/>
<path d="M10.9179 23.9727C5.03153 23.9727 0.601934 19.2393 0.601562 12.5033C0.782312 15.7174 2.41949 18.8123 6.66871 18.8123C12.0696 18.5696 16.741 13.0473 18.7449 10.6199C20.7488 8.19254 25.3001 0.912598 30.2156 0.912598C37.1336 0.912598 40.4713 6.49336 40.4713 11.8358C40.4713 10.3165 38.9541 5.03693 33.9173 5.03693C28.8805 5.03693 26.3305 9.4669 23.2963 14.261C20.262 19.055 15.4073 23.9727 10.9179 23.9727Z" fill="#DC361F"/>
<path d="M64.8556 2.53788C64.8556 1.87413 64.7645 1.38608 64.5823 1.07372C64.4001 0.748351 64.0357 0.585666 63.4891 0.585666H63.0986V0.195222H64.8556C65.3502 0.195222 65.7211 0.266803 65.9684 0.409966C66.2287 0.540114 66.4109 0.761365 66.515 1.07372H66.6126C66.8469 0.77438 67.1788 0.520592 67.6083 0.312355C68.0377 0.104119 68.5844 0 69.2481 0C70.3674 0 71.2329 0.455517 71.8446 1.36655C72.4563 2.26457 72.7621 3.40337 72.7621 4.78294C72.7621 6.17552 72.4433 7.32082 71.8055 8.21884C71.1808 9.11686 70.2633 9.56587 69.0529 9.56587C68.5583 9.56587 68.1223 9.51381 67.7449 9.40969C67.3675 9.30558 66.9901 9.16241 66.6126 8.98021V13.0799H64.8556V2.53788ZM68.4672 8.78498C69.3002 8.78498 69.9119 8.42057 70.3023 7.69174C70.7058 6.96291 70.9075 5.99331 70.9075 4.78294C70.9075 3.58557 70.7188 2.62248 70.3414 1.89365C69.9639 1.15181 69.4043 0.780887 68.6625 0.780887C67.7905 0.780887 67.1072 1.17133 66.6126 1.95222V8.19932C67.0031 8.38153 67.3415 8.52469 67.6278 8.62881C67.9141 8.73293 68.1939 8.78498 68.4672 8.78498Z" fill="#2B51A6"/>
<path d="M57.3502 9.56587C56.9338 9.56587 56.5108 9.48127 56.0813 9.31208C55.6518 9.12987 55.2809 8.83704 54.9685 8.43358C54.6692 8.03012 54.5195 7.49652 54.5195 6.83276C54.5195 5.84364 54.975 5.14084 55.8861 4.72437C56.8101 4.3079 58.014 4.09966 59.4977 4.09966H60.0833C60.0833 2.82421 59.9077 1.95222 59.5563 1.48369C59.2049 1.01515 58.6973 0.780887 58.0335 0.780887C57.4479 0.780887 56.9793 0.904528 56.6279 1.15181C56.2765 1.39909 56.0292 1.82858 55.8861 2.44027H55.0076C55.0076 1.99777 55.0336 1.65288 55.0857 1.4056C55.1377 1.1453 55.2744 0.904528 55.4956 0.683277C55.7299 0.44901 56.1138 0.279818 56.6474 0.1757C57.1941 0.0585668 57.7862 0 58.424 0C59.4782 0 60.3111 0.286326 60.9228 0.858976C61.5345 1.41861 61.8403 2.49884 61.8403 4.09966V9.37065H60.8642L60.181 8.49215H60.0833C59.8491 8.79149 59.5042 9.04528 59.0487 9.25352C58.5932 9.46175 58.027 9.56587 57.3502 9.56587ZM58.2287 8.68737C58.6582 8.68737 59.0161 8.58325 59.3025 8.37502C59.5888 8.16678 59.8491 7.88045 60.0833 7.51604V4.88055H59.4977C58.5346 4.88055 57.7732 5.06275 57.2136 5.42717C56.654 5.77857 56.3741 6.2471 56.3741 6.83276C56.3741 7.43144 56.5498 7.89347 56.9012 8.21884C57.2657 8.53119 57.7082 8.68737 58.2287 8.68737Z" fill="#2B51A6"/>
<path d="M48.9521 13.2751C47.6376 13.2751 46.5899 13.0343 45.809 12.5528C45.0412 12.0712 44.6572 11.3033 44.6572 10.2491C44.6572 9.65047 44.859 9.12988 45.2624 8.68737C45.6659 8.24487 46.18 7.9195 46.8047 7.71126C46.2841 7.42494 46.0238 7.03449 46.0238 6.53993C46.0238 6.27964 46.0823 6.07791 46.1995 5.93474C46.3166 5.79158 46.4858 5.6354 46.7071 5.46621C46.2906 5.25798 45.9392 4.93261 45.6529 4.4901C45.3795 4.0476 45.2429 3.52701 45.2429 2.92833C45.2429 0.97611 46.4793 0 48.9521 0H52.5637V0.488055L51.2948 0.683277V0.780887C51.6982 0.989124 52.0236 1.28196 52.2709 1.65939C52.5312 2.0238 52.6613 2.44678 52.6613 2.92833C52.6613 4.88055 51.4249 5.85666 48.9521 5.85666C47.5856 5.85666 46.9023 6.08441 46.9023 6.53993C46.9023 6.99545 47.5856 7.22321 48.9521 7.22321C50.2145 7.22321 51.2427 7.477 52.0366 7.98458C52.8435 8.47914 53.247 9.23399 53.247 10.2491C53.247 11.3033 52.8565 12.0712 52.0757 12.5528C51.3078 13.0343 50.2666 13.2751 48.9521 13.2751ZM48.9521 5.17338C49.5378 5.17338 50.0063 4.99768 50.3577 4.64628C50.7221 4.28187 50.9043 3.70922 50.9043 2.92833C50.9043 2.18649 50.7221 1.62685 50.3577 1.24942C50.0063 0.871991 49.5378 0.683277 48.9521 0.683277C48.3664 0.683277 47.8914 0.865484 47.527 1.2299C47.1756 1.5813 46.9999 2.14744 46.9999 2.92833C46.9999 3.70922 47.1756 4.28187 47.527 4.64628C47.8914 4.99768 48.3664 5.17338 48.9521 5.17338ZM48.9521 12.4942C49.733 12.4942 50.3512 12.3055 50.8067 11.9281C51.2622 11.5636 51.49 11.004 51.49 10.2491C51.49 8.94767 50.7091 8.19932 49.1473 8.0041L48.0736 7.90649C47.54 8.11472 47.13 8.40756 46.8437 8.78498C46.5574 9.16241 46.4142 9.65047 46.4142 10.2491C46.4142 11.004 46.642 11.5636 47.0975 11.9281C47.553 12.3055 48.1712 12.4942 48.9521 12.4942Z" fill="#2B51A6"/>
<path d="M105.6 13.2628C105.6 12.5991 105.509 12.111 105.327 11.7987C105.145 11.4733 104.78 11.3106 104.234 11.3106H103.843V10.9202H105.6C106.082 10.9202 106.44 10.9852 106.674 11.1154C106.921 11.2325 107.097 11.4538 107.201 11.7791C107.305 12.1045 107.357 12.5991 107.357 13.2628V23.8048H105.6V13.2628Z" fill="#2B51A6"/>
<path d="M99.5626 24C98.6775 24 97.9292 23.7917 97.3175 23.3752C96.7058 22.9458 96.2438 22.3731 95.9314 21.6573C95.6191 20.9285 95.4629 20.115 95.4629 19.217C95.4629 18.332 95.6191 17.5251 95.9314 16.7963C96.2438 16.0674 96.6928 15.4948 97.2785 15.0783C97.8771 14.6488 98.5734 14.4341 99.3673 14.4341C100.682 14.4341 101.658 14.805 102.296 15.5468C102.946 16.2757 103.272 17.3364 103.272 18.729L103.233 19.5099H97.3175C97.3175 20.6031 97.5518 21.4946 98.0203 22.1844C98.4888 22.8742 99.1331 23.2191 99.953 23.2191C100.565 23.2191 101.079 23.0889 101.495 22.8286C101.925 22.5683 102.322 22.1779 102.686 21.6573L103.077 21.9501C102.647 22.6659 102.146 23.1865 101.573 23.5119C101.001 23.8373 100.33 24 99.5626 24ZM101.417 18.729C101.417 17.5837 101.248 16.7117 100.91 16.113C100.571 15.5143 100.057 15.215 99.3673 15.215C98.9769 15.215 98.6255 15.3711 98.3131 15.6835C98.0008 15.9828 97.7535 16.3993 97.5713 16.9329C97.4021 17.4665 97.3175 18.0652 97.3175 18.729H101.417Z" fill="#2B51A6"/>
<path d="M85.6632 16.972C85.6632 16.3082 85.5721 15.8202 85.3899 15.5078C85.2077 15.1824 84.8433 15.0197 84.2967 15.0197H83.9062V14.6293H85.6632C86.1448 14.6293 86.5092 14.6944 86.7565 14.8245C87.0168 14.9547 87.2055 15.1499 87.3226 15.4102H87.4202C87.6936 15.1369 88.045 14.9091 88.4744 14.7269C88.917 14.5317 89.4115 14.4341 89.9581 14.4341C90.9342 14.4341 91.7282 14.6944 92.3398 15.215C92.9646 15.7356 93.2769 16.6466 93.2769 17.9481V23.8047H91.5199V17.9481C91.5199 17.037 91.3117 16.3733 90.8952 15.9568C90.4917 15.5273 89.9842 15.3126 89.3725 15.3126C88.6827 15.3126 88.0319 15.6575 87.4202 16.3473V23.8047H85.6632V16.972Z" fill="#2B51A6"/>
<path d="M81.6009 13.458C81.3016 13.458 81.0413 13.3344 80.82 13.0871C80.6118 12.8398 80.5077 12.547 80.5077 12.2086C80.5077 11.9353 80.5857 11.7205 80.7419 11.5643C80.9111 11.4082 81.1324 11.3301 81.4057 11.3301C81.705 11.3301 81.9588 11.4537 82.167 11.701C82.3883 11.9483 82.4989 12.2411 82.4989 12.5795C82.4989 12.8528 82.4143 13.0676 82.2451 13.2237C82.089 13.3799 81.8742 13.458 81.6009 13.458ZM80.8591 16.972C80.8591 16.3082 80.7679 15.8202 80.5857 15.5078C80.4035 15.1825 80.0391 15.0198 79.4925 15.0198H79.1021V14.6293H80.8591C81.3406 14.6293 81.6985 14.6944 81.9328 14.8246C82.1801 14.9417 82.3558 15.1629 82.4599 15.4883C82.564 15.8137 82.6161 16.3082 82.6161 16.972V23.8048H80.8591V16.972Z" fill="#2B51A6"/>
<path d="M76.6838 23.9999C75.955 23.9999 75.3823 23.7917 74.9659 23.3752C74.5494 22.9587 74.3412 22.321 74.3412 21.462V15.4101H72.9746V14.6293H74.3412V12.8723L75.3173 11.7009H76.0982V14.6293H78.4408V15.4101H76.0982V21.462C76.0982 22.6334 76.5537 23.219 77.4647 23.219C77.7771 23.219 78.0374 23.1865 78.2456 23.1214C78.4668 23.0563 78.6946 22.9587 78.9289 22.8286L79.1241 23.219C78.8248 23.4403 78.4929 23.629 78.1285 23.7852C77.764 23.9283 77.2825 23.9999 76.6838 23.9999Z" fill="#2B51A6"/>
<path d="M63.6437 16.972C63.6437 16.3082 63.5526 15.8202 63.3704 15.5078C63.1882 15.1824 62.8238 15.0197 62.2772 15.0197H61.8867V14.6293H63.6437C64.1253 14.6293 64.4897 14.6944 64.737 14.8245C64.9973 14.9547 65.186 15.1499 65.3031 15.4102H65.4007C65.674 15.1369 66.0254 14.9091 66.4549 14.7269C66.8974 14.5317 67.392 14.4341 67.9386 14.4341C68.9147 14.4341 69.7086 14.6944 70.3203 15.215C70.945 15.7356 71.2574 16.6466 71.2574 17.9481V23.8047H69.5004V17.9481C69.5004 17.037 69.2921 16.3733 68.8757 15.9568C68.4722 15.5273 67.9646 15.3126 67.3529 15.3126C66.6631 15.3126 66.0124 15.6575 65.4007 16.3473V23.8047H63.6437V16.972Z" fill="#2B51A6"/>
<path d="M57.3912 24C56.5062 24 55.7578 23.7917 55.1461 23.3752C54.5344 22.9458 54.0724 22.3731 53.76 21.6573C53.4477 20.9285 53.2915 20.115 53.2915 19.217C53.2915 18.332 53.4477 17.5251 53.76 16.7963C54.0724 16.0674 54.5214 15.4948 55.1071 15.0783C55.7057 14.6488 56.402 14.4341 57.1959 14.4341C58.5104 14.4341 59.4865 14.805 60.1243 15.5468C60.775 16.2757 61.1004 17.3364 61.1004 18.729L61.0613 19.5099H55.1461C55.1461 20.6031 55.3804 21.4946 55.8489 22.1844C56.3174 22.8742 56.9617 23.2191 57.7816 23.2191C58.3933 23.2191 58.9074 23.0889 59.3239 22.8286C59.7533 22.5683 60.1503 22.1779 60.5147 21.6573L60.9052 21.9501C60.4757 22.6659 59.9746 23.1865 59.4019 23.5119C58.8293 23.8373 58.159 24 57.3912 24ZM59.2458 18.729C59.2458 17.5837 59.0766 16.7117 58.7382 16.113C58.3998 15.5143 57.8857 15.215 57.1959 15.215C56.8055 15.215 56.4541 15.3711 56.1417 15.6835C55.8294 15.9828 55.5821 16.3993 55.3999 16.9329C55.2307 17.4665 55.1461 18.0652 55.1461 18.729H59.2458Z" fill="#2B51A6"/>
<path d="M48.1712 24C46.6745 24 45.6659 23.7397 45.1453 23.2191C44.924 22.9978 44.7874 22.7505 44.7353 22.4772C44.6833 22.1909 44.6572 21.7549 44.6572 21.1692H45.0477C45.1648 21.82 45.4446 22.3276 45.8871 22.692C46.3426 23.0434 46.9739 23.2191 47.7808 23.2191C48.4966 23.2191 49.0302 23.0954 49.3816 22.8481C49.746 22.6009 49.9282 22.269 49.9282 21.8525C49.9282 21.4751 49.7851 21.1497 49.4987 20.8764C49.2254 20.6031 48.7829 20.3428 48.1712 20.0955L46.9999 19.6075C46.219 19.2951 45.6333 18.9307 45.2429 18.5142C44.8524 18.0977 44.6572 17.5837 44.6572 16.972C44.6572 16.1781 44.9566 15.5599 45.5552 15.1174C46.1539 14.6618 46.9283 14.4341 47.8784 14.4341C49.31 14.4341 50.2861 14.6944 50.8067 15.215C51.028 15.4362 51.1646 15.6835 51.2167 15.9568C51.2687 16.2301 51.2948 16.6661 51.2948 17.2648H50.9043C50.8002 16.6141 50.5269 16.113 50.0844 15.7616C49.6419 15.3972 49.0367 15.215 48.2688 15.215C47.6571 15.215 47.1756 15.3451 46.8242 15.6054C46.4858 15.8527 46.3166 16.1781 46.3166 16.5815C46.3166 17.2583 46.8372 17.8114 47.8784 18.2409L49.0497 18.729C49.9347 19.0934 50.579 19.4838 50.9824 19.9003C51.3859 20.3038 51.5876 20.8243 51.5876 21.4621C51.5876 22.256 51.2687 22.8807 50.631 23.3362C49.9933 23.7787 49.1734 24 48.1712 24Z" fill="#2B51A6"/>
<defs>
<linearGradient id="paint0_linear_1104_6269" x1="40.5305" y1="-7.4035" x2="-4.37603" y2="33.7406" gradientUnits="userSpaceOnUse">
<stop stop-color="#641213"/>
<stop offset="0.455772" stop-color="#CA2426"/>
<stop offset="1" stop-color="#641213"/>
</linearGradient>
</defs>
</svg>
