<svg width="160" height="40" viewBox="0 0 160 40" fill="none" xmlns="http://www.w3.org/2000/svg">
<rect width="160" height="40" fill="#F8F9FA"/>
<mask id="mask0_415_3987" style="mask-type:alpha" maskUnits="userSpaceOnUse" x="10" y="6" width="29" height="28">
<path d="M10 14.17V25.83C10 26.1038 10.1601 26.3591 10.4256 26.5083L23.5199 33.8693C23.8298 34.0436 24.2294 34.0436 24.5393 33.8693L37.6336 26.5083C37.899 26.3591 38.0592 26.1038 38.0592 25.83V14.17C38.0592 13.8962 37.899 13.6409 37.6336 13.4917L24.5393 6.13068C24.2294 5.95644 23.8298 5.95644 23.5199 6.13068L10.4256 13.4917C10.1601 13.6409 10 13.8962 10 14.17Z" fill="#F4629D"/>
</mask>
<g mask="url(#mask0_415_3987)">
<path d="M13.5073 14.5266L24.0295 25.5138H13.5073V14.5266Z" fill="#D72269"/>
<path d="M24.0293 14.5266H34.5515V25.5138L24.0293 14.5266Z" fill="#8B0651"/>
<path fill-rule="evenodd" clip-rule="evenodd" d="M34.5517 14.5266L24.0295 7.61523L13.5073 14.5266L24.0295 25.5138V14.5266L34.5517 14.5266Z" fill="#F4629D"/>
<path fill-rule="evenodd" clip-rule="evenodd" d="M34.5517 25.5138L24.0295 14.5266V25.5138L13.5073 25.5138L24.0295 32.4252L34.5517 25.5138Z" fill="#9F0A42"/>
</g>
<path d="M72.9917 13.8132H76.2978L78.8865 18.926H78.9941L81.5828 13.8132H84.889L80.411 21.9507V26.0314H77.4696V21.9507L72.9917 13.8132Z" fill="#D7226A"/>
<path d="M62.4219 26.0314V13.8132H67.5275C68.4442 13.8132 69.2115 13.9425 69.8293 14.201C70.451 14.4595 70.9174 14.8215 71.2282 15.2868C71.5431 15.7522 71.7005 16.2911 71.7005 16.9036C71.7005 17.3689 71.6029 17.7845 71.4076 18.1504C71.2123 18.5124 70.9433 18.8127 70.6005 19.0513C70.2577 19.2899 69.8611 19.457 69.4108 19.5524V19.6718C69.905 19.6956 70.3613 19.8289 70.7798 20.0715C71.2023 20.3141 71.5411 20.6522 71.7962 21.0857C72.0513 21.5152 72.1788 22.0243 72.1788 22.6129C72.1788 23.2692 72.0114 23.8558 71.6766 24.3729C71.3418 24.886 70.8576 25.2916 70.2238 25.5899C69.5901 25.8843 68.8209 26.0314 67.9161 26.0314H62.4219ZM65.3812 23.651H67.2107C67.8524 23.651 68.3247 23.5297 68.6276 23.2871C68.9345 23.0445 69.0879 22.7064 69.0879 22.2729C69.0879 21.9587 69.0142 21.6882 68.8667 21.4615C68.7192 21.2308 68.51 21.0539 68.239 20.9306C67.9679 20.8033 67.6431 20.7397 67.2645 20.7397H65.3812V23.651ZM65.3812 18.8365H67.0194C67.3422 18.8365 67.6292 18.7828 67.8803 18.6754C68.1314 18.5681 68.3267 18.4129 68.4662 18.2101C68.6096 18.0073 68.6814 17.7627 68.6814 17.4763C68.6814 17.0666 68.5359 16.7445 68.245 16.5098C67.954 16.2752 67.5614 16.1578 67.0672 16.1578H65.3812V18.8365Z" fill="#D7226A"/>
<path d="M57.6134 13.8132H60.5668V21.6942C60.5668 22.605 60.3496 23.3985 59.9152 24.0746C59.4807 24.7468 58.8749 25.2678 58.0977 25.6377C57.3205 26.0036 56.4177 26.1865 55.3894 26.1865C54.3492 26.1865 53.4404 26.0036 52.6632 25.6377C51.886 25.2678 51.2822 24.7468 50.8517 24.0746C50.4213 23.3985 50.2061 22.605 50.2061 21.6942V13.8132H53.1654V21.4377C53.1654 21.8593 53.2571 22.2351 53.4404 22.5652C53.6278 22.8953 53.8888 23.1539 54.2236 23.3408C54.5584 23.5277 54.947 23.6212 55.3894 23.6212C55.8318 23.6212 56.2185 23.5277 56.5493 23.3408C56.8841 23.1539 57.1451 22.8953 57.3325 22.5652C57.5198 22.2351 57.6134 21.8593 57.6134 21.4377V13.8132Z" fill="#D7226A"/>
<path d="M39.0591 26.0314V13.8132H44.1169C45.0336 13.8132 45.8248 13.9783 46.4904 14.3084C47.16 14.6345 47.6761 15.1039 48.0388 15.7164C48.4015 16.3249 48.5829 17.0468 48.5829 17.882C48.5829 18.7291 48.3975 19.449 48.0269 20.0416C47.6562 20.6303 47.1301 21.0797 46.4485 21.3899C45.767 21.6962 44.9599 21.8493 44.0272 21.8493H40.8287V19.5226H43.4772C43.9236 19.5226 44.2963 19.4649 44.5952 19.3496C44.8981 19.2303 45.1273 19.0513 45.2827 18.8127C45.4382 18.5701 45.5159 18.2598 45.5159 17.882C45.5159 17.5041 45.4382 17.1919 45.2827 16.9453C45.1273 16.6948 44.8981 16.5078 44.5952 16.3845C44.2923 16.2573 43.9196 16.1936 43.4772 16.1936H42.0184V26.0314H39.0591ZM45.9523 20.4473L49.0014 26.0314H45.773L42.7837 20.4473H45.9523Z" fill="#D7226A"/>
<path d="M149.194 14.0339V26.2521H147.407V14.0339H149.194Z" fill="#D7226A"/>
<path d="M141.484 26.4371C140.579 26.4371 139.8 26.2442 139.146 25.8584C138.496 25.4687 137.994 24.9218 137.639 24.2178C137.289 23.5099 137.113 22.6806 137.113 21.73C137.113 20.7914 137.289 19.9641 137.639 19.2482C137.994 18.5323 138.488 17.9735 139.122 17.5718C139.76 17.1701 140.505 16.9692 141.358 16.9692C141.876 16.9692 142.378 17.0548 142.865 17.2258C143.351 17.3968 143.787 17.6653 144.174 18.0312C144.561 18.3971 144.865 18.8724 145.089 19.457C145.312 20.0377 145.423 20.7437 145.423 21.5749V22.2073H138.124V20.8709H143.672C143.672 20.4016 143.576 19.986 143.385 19.6241C143.193 19.2582 142.924 18.9698 142.578 18.759C142.235 18.5482 141.832 18.4428 141.37 18.4428C140.868 18.4428 140.429 18.5661 140.055 18.8127C139.684 19.0553 139.397 19.3735 139.194 19.7673C138.995 20.157 138.895 20.5806 138.895 21.038V22.082C138.895 22.6945 139.002 23.2155 139.218 23.6451C139.437 24.0746 139.742 24.4028 140.132 24.6295C140.523 24.8522 140.979 24.9636 141.502 24.9636C141.84 24.9636 142.149 24.9158 142.428 24.8204C142.707 24.7209 142.948 24.5738 143.152 24.3789C143.355 24.184 143.51 23.9434 143.618 23.657L145.31 23.9613C145.174 24.4584 144.931 24.894 144.58 25.2678C144.234 25.6377 143.797 25.9261 143.271 26.1329C142.749 26.3357 142.153 26.4371 141.484 26.4371Z" fill="#D7226A"/>
<path d="M129.251 20.8113V26.2522H127.464V17.0886H129.18V18.58H129.293C129.505 18.0948 129.835 17.705 130.286 17.4107C130.74 17.1164 131.312 16.9692 132.002 16.9692C132.627 16.9692 133.175 17.1005 133.646 17.363C134.116 17.6215 134.481 18.0073 134.74 18.5204C134.999 19.0334 135.128 19.6678 135.128 20.4235V26.2522H133.341V20.6383C133.341 19.9741 133.167 19.455 132.821 19.0812C132.474 18.7033 131.998 18.5144 131.392 18.5144C130.977 18.5144 130.609 18.6039 130.286 18.7829C129.967 18.9619 129.714 19.2244 129.526 19.5704C129.343 19.9124 129.251 20.3261 129.251 20.8113Z" fill="#D7226A"/>
<path d="M123.271 26.2523V17.0887H125.059V26.2523H123.271ZM124.174 15.6748C123.863 15.6748 123.596 15.5713 123.373 15.3645C123.154 15.1537 123.044 14.9032 123.044 14.6128C123.044 14.3185 123.154 14.0679 123.373 13.8611C123.596 13.6503 123.863 13.5449 124.174 13.5449C124.485 13.5449 124.75 13.6503 124.969 13.8611C125.192 14.0679 125.304 14.3185 125.304 14.6128C125.304 14.9032 125.192 15.1537 124.969 15.3645C124.75 15.5713 124.485 15.6748 124.174 15.6748Z" fill="#D7226A"/>
<path d="M121.294 17.0888V18.5206H116.278V17.0888H121.294ZM117.623 14.8933H119.411V23.5618C119.411 23.9078 119.462 24.1683 119.566 24.3433C119.67 24.5143 119.803 24.6317 119.967 24.6953C120.134 24.755 120.315 24.7848 120.511 24.7848C120.654 24.7848 120.78 24.7748 120.887 24.755C120.995 24.7351 121.079 24.7192 121.138 24.7072L121.461 26.1808C121.358 26.2206 121.21 26.2604 121.019 26.3001C120.827 26.3439 120.588 26.3677 120.301 26.3717C119.831 26.3797 119.393 26.2962 118.986 26.1212C118.58 25.9462 118.251 25.6757 118 25.3098C117.749 24.9439 117.623 24.4845 117.623 23.9317V14.8933Z" fill="#D7226A"/>
<path d="M108.733 20.8113V26.2522H106.945V17.0886H108.661V18.58H108.775C108.986 18.0948 109.317 17.705 109.767 17.4107C110.222 17.1164 110.793 16.9692 111.483 16.9692C112.109 16.9692 112.657 17.1005 113.127 17.363C113.597 17.6215 113.962 18.0073 114.221 18.5204C114.48 19.0334 114.61 19.6678 114.61 20.4235V26.2522H112.822V20.6383C112.822 19.9741 112.649 19.455 112.302 19.0812C111.955 18.7033 111.479 18.5144 110.873 18.5144C110.459 18.5144 110.09 18.6039 109.767 18.7829C109.448 18.9619 109.195 19.2244 109.008 19.5704C108.825 19.9124 108.733 20.3261 108.733 20.8113Z" fill="#D7226A"/>
<path d="M101.022 26.4371C100.117 26.4371 99.3382 26.2442 98.6846 25.8584C98.0349 25.4687 97.5327 24.9218 97.178 24.2178C96.8272 23.5099 96.6519 22.6806 96.6519 21.73C96.6519 20.7914 96.8272 19.9641 97.178 19.2482C97.5327 18.5323 98.0269 17.9735 98.6606 17.5718C99.2983 17.1701 100.044 16.9692 100.897 16.9692C101.415 16.9692 101.917 17.0548 102.403 17.2258C102.889 17.3968 103.326 17.6653 103.712 18.0312C104.099 18.3971 104.404 18.8724 104.627 19.457C104.85 20.0377 104.962 20.7437 104.962 21.5749V22.2073H97.6622V20.8709H103.21C103.21 20.4016 103.115 19.986 102.923 19.6241C102.732 19.2582 102.463 18.9698 102.116 18.759C101.773 18.5482 101.371 18.4428 100.909 18.4428C100.406 18.4428 99.9679 18.5661 99.5933 18.8127C99.2226 19.0553 98.9357 19.3735 98.7324 19.7673C98.5331 20.157 98.4335 20.5806 98.4335 21.038V22.082C98.4335 22.6945 98.5411 23.2155 98.7563 23.6451C98.9755 24.0746 99.2804 24.4028 99.671 24.6295C100.062 24.8522 100.518 24.9636 101.04 24.9636C101.379 24.9636 101.688 24.9158 101.967 24.8204C102.246 24.7209 102.487 24.5738 102.69 24.3789C102.893 24.184 103.049 23.9434 103.156 23.657L104.848 23.9613C104.713 24.4584 104.47 24.894 104.119 25.2678C103.772 25.6377 103.336 25.9261 102.81 26.1329C102.288 26.3357 101.692 26.4371 101.022 26.4371Z" fill="#D7226A"/>
<path d="M93.0514 17.2436C92.9877 16.6789 92.7246 16.2414 92.2623 15.9311C91.7999 15.6169 91.218 15.4598 90.5165 15.4598C90.0143 15.4598 89.5799 15.5394 89.2132 15.6985C88.8465 15.8536 88.5616 16.0684 88.3583 16.3428C88.159 16.6132 88.0594 16.9215 88.0594 17.2675C88.0594 17.5579 88.1271 17.8084 88.2626 18.0192C88.4021 18.23 88.5835 18.407 88.8067 18.5502C89.0339 18.6894 89.277 18.8067 89.5361 18.9022C89.7951 18.9936 90.0442 19.0692 90.2834 19.1289L91.4791 19.4391C91.8697 19.5346 92.2702 19.6638 92.6808 19.8269C93.0913 19.99 93.4719 20.2047 93.8227 20.4712C94.1734 20.7377 94.4564 21.0678 94.6716 21.4615C94.8908 21.8553 95.0004 22.3266 95.0004 22.8755C95.0004 23.5675 94.8211 24.182 94.4624 24.7189C94.1076 25.2559 93.5915 25.6794 92.9139 25.9897C92.2403 26.2999 91.4253 26.455 90.4687 26.455C89.552 26.455 88.7588 26.3098 88.0893 26.0195C87.4197 25.7292 86.8955 25.3175 86.5169 24.7846C86.1383 24.2476 85.929 23.6113 85.8892 22.8755H87.7425C87.7784 23.3169 87.9219 23.6848 88.173 23.9792C88.428 24.2695 88.7529 24.4863 89.1475 24.6294C89.546 24.7686 89.9825 24.8383 90.4567 24.8383C90.9789 24.8383 91.4432 24.7567 91.8497 24.5936C92.2603 24.4266 92.5831 24.1959 92.8183 23.9016C93.0534 23.6033 93.171 23.2553 93.171 22.8576C93.171 22.4956 93.0674 22.1993 92.8601 21.9686C92.6568 21.738 92.3798 21.5471 92.0291 21.3959C91.6823 21.2448 91.2898 21.1115 90.8513 20.9962L89.4045 20.6025C88.4241 20.336 87.6468 19.9442 87.0729 19.4272C86.503 18.9101 86.218 18.226 86.218 17.3749C86.218 16.6709 86.4093 16.0564 86.7919 15.5314C87.1745 15.0064 87.6927 14.5988 88.3463 14.3084C89 14.0141 89.7373 13.8669 90.5584 13.8669C91.3874 13.8669 92.1188 14.0121 92.7525 14.3025C93.3902 14.5928 93.8924 14.9925 94.2591 15.5016C94.6258 16.0067 94.8171 16.5874 94.833 17.2436H93.0514Z" fill="#D7226A"/>
</svg>
