<svg width="52" height="52" viewBox="0 0 52 52" fill="none" xmlns="http://www.w3.org/2000/svg">
<rect width="52" height="52" rx="12" fill="#F5F5F5"/>
<g clip-path="url(#clip0_402_9721)">
<path d="M14 33.5V41H11V12.5H39.707C39.8385 12.4998 39.9677 12.5341 40.0817 12.5996C40.1957 12.665 40.2905 12.7593 40.3566 12.873C40.4227 12.9866 40.4577 13.1156 40.4583 13.2471C40.4588 13.3786 40.4247 13.5078 40.3595 13.622L35 23L40.3595 32.378C40.4247 32.4922 40.4588 32.6214 40.4583 32.7529C40.4577 32.8844 40.4227 33.0134 40.3566 33.127C40.2905 33.2407 40.1957 33.335 40.0817 33.4004C39.9677 33.4659 39.8385 33.5002 39.707 33.5H14ZM14 15.5V30.5H35.831L31.544 23L35.831 15.5H14Z" fill="#96989A"/>
</g>
<defs>
<clipPath id="clip0_402_9721">
<rect width="36" height="36" fill="white" transform="translate(8 8)"/>
</clipPath>
</defs>
</svg>
