<svg width="72" height="72" viewBox="0 0 72 72" fill="none" xmlns="http://www.w3.org/2000/svg">
<g clip-path="url(#clip0_443_10965)">
<circle cx="36" cy="36" r="32" stroke="#F1F1F3" stroke-width="6"/>
<g opacity="0.5">
<mask id="path-2-inside-1_443_10965" fill="white">
<path d="M36 1.00001C55.33 1.00001 71 16.67 71 36C71 55.33 55.33 71 36 71C16.67 71 0.999999 55.33 0.999998 36C0.999998 16.67 16.67 1.00001 36 1.00001ZM36 66.8049C53.0131 66.8049 66.8049 53.0131 66.8049 36C66.8049 18.9869 53.0131 5.19509 36 5.19509C18.9869 5.19509 5.19508 18.9869 5.19508 36C5.19508 53.0131 18.9869 66.8049 36 66.8049Z"/>
</mask>
<path d="M36 1.00001C55.33 1.00001 71 16.67 71 36C71 55.33 55.33 71 36 71C16.67 71 0.999999 55.33 0.999998 36C0.999998 16.67 16.67 1.00001 36 1.00001ZM36 66.8049C53.0131 66.8049 66.8049 53.0131 66.8049 36C66.8049 18.9869 53.0131 5.19509 36 5.19509C18.9869 5.19509 5.19508 18.9869 5.19508 36C5.19508 53.0131 18.9869 66.8049 36 66.8049Z" stroke="#8FD6BD" stroke-width="8" mask="url(#path-2-inside-1_443_10965)"/>
</g>
<g clip-path="url(#clip1_443_10965)">
<path d="M35.3759 38.7596L37.5901 40.9739L50.8664 27.6977L53.0838 29.9151L37.5901 45.4087L27.6102 35.4288L29.8276 33.2114L33.16 36.5438L35.3759 38.7581V38.7596ZM35.379 34.3248L43.1446 26.5576L45.3558 28.7688L37.5901 36.536L35.379 34.3248ZM30.9458 43.1929L28.7299 45.4087L18.75 35.4288L20.9674 33.2114L23.1833 35.4273L23.1817 35.4288L30.9458 43.1929Z" fill="#4B9560"/>
</g>
</g>
<defs>
<clipPath id="clip0_443_10965">
<rect width="72" height="72" fill="white"/>
</clipPath>
<clipPath id="clip1_443_10965">
<rect width="37.6364" height="37.6364" fill="white" transform="translate(17.1816 17.1816)"/>
</clipPath>
</defs>
</svg>
