<svg width="14" height="19" viewBox="0 0 14 19" fill="none" xmlns="http://www.w3.org/2000/svg">
<path d="M6.99996 18.1667C8.65756 18.1667 10.2473 17.5082 11.4194 16.3361C12.5915 15.164 13.25 13.5743 13.25 11.9167C13.25 11.195 13.0583 10.5025 12.8333 9.85833C11.4441 11.2308 10.3891 11.9167 9.66662 11.9167C12.9958 6.08333 11.1666 3.58333 6.16662 0.25C6.58329 4.41667 3.83662 6.31167 2.71829 7.36417C1.80606 8.22223 1.17265 9.33456 0.900192 10.5569C0.62773 11.7793 0.728782 13.0554 1.19024 14.2196C1.65171 15.3839 2.4523 16.3826 3.48821 17.0864C4.52413 17.7902 5.74758 18.1666 6.99996 18.1667ZM7.59162 3.3625C10.2925 5.65417 10.3058 7.435 8.21912 11.0908C7.58496 12.2017 8.38746 13.5833 9.66662 13.5833C10.24 13.5833 10.82 13.4167 11.4325 13.0875C11.2509 13.7733 10.9126 14.4076 10.4443 14.9405C9.97588 15.4733 9.39021 15.8902 8.73335 16.1582C8.07649 16.4263 7.36637 16.5381 6.65892 16.4851C5.95147 16.432 5.26599 16.2154 4.65646 15.8524C4.04693 15.4894 3.53 14.9898 3.14636 14.3931C2.76272 13.7963 2.52285 13.1186 2.44564 12.4134C2.36842 11.7082 2.45598 10.9947 2.7014 10.329C2.94682 9.66339 3.34342 9.06381 3.85996 8.5775C3.96496 8.47917 4.49746 8.00667 4.52079 7.98583C4.87412 7.66917 5.16496 7.38833 5.45246 7.08083C6.47746 5.9825 7.21412 4.76417 7.59079 3.3625H7.59162Z" fill="#495057"/>
</svg>
