<svg width="52" height="52" viewBox="0 0 52 52" fill="none" xmlns="http://www.w3.org/2000/svg">
<rect width="52" height="52" rx="12" fill="#F5F5F5"/>
<g clip-path="url(#clip0_402_9455)">
<path d="M26 42.5C23.7457 42.4998 21.5435 41.8224 19.6789 40.5556C17.8142 39.2887 16.3732 37.491 15.5425 35.3953C14.7119 33.2996 14.53 31.0028 15.0204 28.8025C15.5109 26.6022 16.651 24.6 18.293 23.0555C20.306 21.161 25.25 17.75 24.5 10.25C33.5 16.25 38 22.25 29 31.25C30.5 31.25 32.75 31.25 36.5 27.545C36.905 28.7045 37.25 29.951 37.25 31.25C37.25 34.2337 36.0648 37.0952 33.955 39.205C31.8452 41.3147 28.9837 42.5 26 42.5Z" fill="#FF2E35"/>
</g>
<defs>
<clipPath id="clip0_402_9455">
<rect width="36" height="36" fill="white" transform="translate(8 8)"/>
</clipPath>
</defs>
</svg>
