<svg width="400" height="78" viewBox="0 0 400 78" fill="none" xmlns="http://www.w3.org/2000/svg">
<mask id="mask0_36_8149" style="mask-type:alpha" maskUnits="userSpaceOnUse" x="7" y="0" width="79" height="78">
<path d="M7.76709 22.7592V55.2408C7.76709 56.0036 8.21037 56.7145 8.94511 57.1302L45.1911 77.636C46.0491 78.1214 47.155 78.1214 48.013 77.636L84.259 57.1302C84.9937 56.7145 85.437 56.0036 85.437 55.2408V22.7592C85.437 21.9965 84.9937 21.2855 84.259 20.8698L48.013 0.364049C47.155 -0.121349 46.0491 -0.12135 45.1911 0.364048L8.94511 20.8698C8.21037 21.2855 7.76709 21.9965 7.76709 22.7592Z" fill="#F4629D"/>
</mask>
<g mask="url(#mask0_36_8149)">
<path d="M17.4756 23.752L46.6018 54.3592H17.4756V23.752Z" fill="#D72269"/>
<path d="M46.6016 23.752H75.7278V54.3592L46.6016 23.752Z" fill="#8B0651"/>
<path fill-rule="evenodd" clip-rule="evenodd" d="M75.728 23.752L46.6018 4.49902L17.4756 23.752L46.6018 54.3593V23.752L75.728 23.752Z" fill="#F4629D"/>
<path fill-rule="evenodd" clip-rule="evenodd" d="M75.728 54.3592L46.6018 23.752V54.3592L17.4756 54.3592L46.6018 73.6122L75.728 54.3592Z" fill="#9F0A42"/>
</g>
<path d="M181.929 22.5137H191.081L198.246 36.7564H198.544L205.71 22.5137H214.862L202.466 45.1824V56.55H194.324V45.1824L181.929 22.5137Z" fill="white"/>
<path d="M152.671 56.55V22.5137H166.804C169.341 22.5137 171.465 22.8738 173.175 23.5939C174.896 24.3141 176.187 25.3223 177.048 26.6186C177.919 27.915 178.355 29.4162 178.355 31.1225C178.355 32.4188 178.085 33.5766 177.544 34.5959C177.003 35.6042 176.259 36.4407 175.31 37.1054C174.361 37.7702 173.263 38.2355 172.017 38.5015V38.8338C173.385 38.9003 174.648 39.2715 175.806 39.9473C176.976 40.6232 177.914 41.565 178.62 42.7726C179.326 43.9692 179.679 45.3874 179.679 47.0272C179.679 48.8553 179.215 50.4895 178.289 51.9299C177.362 53.3591 176.022 54.4892 174.267 55.3202C172.513 56.1401 170.384 56.55 167.879 56.55H152.671ZM160.863 49.9189H165.927C167.703 49.9189 169.01 49.581 169.849 48.9052C170.698 48.2293 171.123 47.2875 171.123 46.0799C171.123 45.2046 170.919 44.4512 170.511 43.8196C170.102 43.177 169.523 42.684 168.773 42.3405C168.023 41.986 167.124 41.8087 166.076 41.8087H160.863V49.9189ZM160.863 36.5071H165.397C166.291 36.5071 167.085 36.3576 167.78 36.0584C168.475 35.7593 169.016 35.3272 169.402 34.7621C169.799 34.1971 169.998 33.5157 169.998 32.7179C169.998 31.5767 169.595 30.6793 168.79 30.0256C167.984 29.3719 166.898 29.0451 165.529 29.0451H160.863V36.5071Z" fill="white"/>
<path d="M139.361 22.5137H147.536V44.4678C147.536 47.005 146.935 49.2154 145.732 51.0989C144.53 52.9713 142.853 54.4228 140.702 55.4532C138.55 56.4725 136.051 56.9821 133.205 56.9821C130.325 56.9821 127.81 56.4725 125.659 55.4532C123.507 54.4228 121.836 52.9713 120.644 51.0989C119.453 49.2154 118.857 47.005 118.857 44.4678V22.5137H127.049V43.7532C127.049 44.9276 127.302 45.9746 127.81 46.8942C128.328 47.8138 129.051 48.534 129.978 49.0547C130.905 49.5755 131.98 49.8358 133.205 49.8358C134.43 49.8358 135.5 49.5755 136.415 49.0547C137.342 48.534 138.065 47.8138 138.583 46.8942C139.102 45.9746 139.361 44.9276 139.361 43.7532V22.5137Z" fill="white"/>
<path d="M88.0015 56.55V22.5137H102.002C104.539 22.5137 106.729 22.9735 108.572 23.8931C110.425 24.8016 111.854 26.109 112.858 27.8152C113.862 29.5104 114.364 31.5213 114.364 33.848C114.364 36.208 113.851 38.2134 112.825 39.8642C111.799 41.504 110.343 42.756 108.456 43.6202C106.569 44.4733 104.335 44.8999 101.754 44.8999H92.9V38.4184H100.231C101.467 38.4184 102.498 38.2577 103.326 37.9364C104.164 37.604 104.799 37.1054 105.229 36.4407C105.659 35.7648 105.874 34.9006 105.874 33.848C105.874 32.7955 105.659 31.9257 105.229 31.2388C104.799 30.5408 104.164 30.0201 103.326 29.6766C102.487 29.3221 101.456 29.1448 100.231 29.1448H96.1932V56.55H88.0015ZM107.082 40.9944L115.522 56.55H106.586L98.3115 40.9944H107.082Z" fill="white"/>
<path d="M393.15 22.5137V56.55H388.202V22.5137H393.15Z" fill="white"/>
<path d="M371.805 57.0653C369.301 57.0653 367.144 56.5279 365.335 55.4532C363.536 54.3674 362.146 52.844 361.164 50.8829C360.193 48.9107 359.708 46.6007 359.708 43.9526C359.708 41.3379 360.193 39.0333 361.164 37.039C362.146 35.0447 363.514 33.488 365.268 32.369C367.034 31.2499 369.097 30.6904 371.458 30.6904C372.892 30.6904 374.282 30.9286 375.628 31.4051C376.974 31.8815 378.182 32.6294 379.252 33.6487C380.323 34.668 381.167 35.992 381.784 37.6207C382.402 39.2383 382.711 41.2049 382.711 43.5205V45.2822H362.505V41.5595H377.862C377.862 40.2521 377.597 39.0943 377.068 38.086C376.538 37.0667 375.794 36.2634 374.834 35.6762C373.885 35.089 372.771 34.7954 371.491 34.7954C370.101 34.7954 368.887 35.1389 367.85 35.8258C366.824 36.5017 366.03 37.388 365.467 38.4849C364.915 39.5707 364.64 40.7507 364.64 42.0248V44.9332C364.64 46.6394 364.937 48.0909 365.533 49.2874C366.14 50.484 366.984 51.3981 368.065 52.0296C369.146 52.6501 370.41 52.9603 371.855 52.9603C372.793 52.9603 373.648 52.8274 374.42 52.5615C375.192 52.2845 375.86 51.8745 376.422 51.3316C376.985 50.7887 377.415 50.1184 377.713 49.3207L382.397 50.1683C382.022 51.5532 381.349 52.7664 380.378 53.8079C379.418 54.8383 378.21 55.6416 376.753 56.2177C375.308 56.7828 373.659 57.0653 371.805 57.0653Z" fill="white"/>
<path d="M337.946 41.3933V56.5501H332.998V31.0228H337.748V35.1776H338.062C338.647 33.8259 339.562 32.7401 340.809 31.9203C342.067 31.1004 343.65 30.6904 345.559 30.6904C347.291 30.6904 348.808 31.0561 350.11 31.7873C351.412 32.5075 352.421 33.5822 353.138 35.0115C353.855 36.4407 354.214 38.2079 354.214 40.313V56.5501H349.266V40.9113C349.266 39.061 348.786 37.6151 347.826 36.5737C346.866 35.5211 345.548 34.9948 343.871 34.9948C342.723 34.9948 341.703 35.2441 340.809 35.7427C339.927 36.2413 339.226 36.9725 338.707 37.9365C338.2 38.8893 337.946 40.0416 337.946 41.3933Z" fill="white"/>
<path d="M321.393 56.55V31.0228H326.341V56.55H321.393ZM323.892 27.084C323.031 27.084 322.292 26.7959 321.674 26.2198C321.068 25.6326 320.764 24.9345 320.764 24.1257C320.764 23.3059 321.068 22.6078 321.674 22.0317C322.292 21.4445 323.031 21.1509 323.892 21.1509C324.752 21.1509 325.486 21.4445 326.093 22.0317C326.711 22.6078 327.02 23.3059 327.02 24.1257C327.02 24.9345 326.711 25.6326 326.093 26.2198C325.486 26.7959 324.752 27.084 323.892 27.084Z" fill="white"/>
<path d="M315.92 31.0226V35.0113H302.035V31.0226H315.92ZM305.759 24.9067H310.707V49.0546C310.707 50.0185 310.85 50.7442 311.137 51.2317C311.424 51.7082 311.794 52.035 312.246 52.2123C312.709 52.3785 313.211 52.4616 313.752 52.4616C314.149 52.4616 314.497 52.4339 314.794 52.3785C315.092 52.3231 315.324 52.2788 315.489 52.2455L316.383 56.3505C316.096 56.4613 315.688 56.5721 315.158 56.6829C314.629 56.8048 313.967 56.8712 313.173 56.8823C311.871 56.9045 310.657 56.6718 309.532 56.1843C308.407 55.6968 307.496 54.9434 306.801 53.9241C306.106 52.9048 305.759 51.6251 305.759 50.085V24.9067Z" fill="white"/>
<path d="M281.15 41.3933V56.5501H276.202V31.0228H280.952V35.1776H281.266C281.851 33.8259 282.767 32.7401 284.013 31.9203C285.271 31.1004 286.854 30.6904 288.763 30.6904C290.495 30.6904 292.012 31.0561 293.314 31.7873C294.616 32.5075 295.625 33.5822 296.342 35.0115C297.059 36.4407 297.418 38.2079 297.418 40.313V56.5501H292.47V40.9113C292.47 39.061 291.99 37.6151 291.03 36.5737C290.07 35.5211 288.752 34.9948 287.075 34.9948C285.927 34.9948 284.907 35.2441 284.013 35.7427C283.131 36.2413 282.43 36.9725 281.912 37.9365C281.404 38.8893 281.15 40.0416 281.15 41.3933Z" fill="white"/>
<path d="M259.806 57.0653C257.302 57.0653 255.145 56.5279 253.336 55.4532C251.537 54.3674 250.147 52.844 249.165 50.8829C248.194 48.9107 247.709 46.6007 247.709 43.9526C247.709 41.3379 248.194 39.0333 249.165 37.039C250.147 35.0447 251.515 33.488 253.269 32.369C255.035 31.2499 257.098 30.6904 259.459 30.6904C260.893 30.6904 262.283 30.9286 263.629 31.4051C264.975 31.8815 266.183 32.6294 267.253 33.6487C268.324 34.668 269.168 35.992 269.785 37.6207C270.403 39.2383 270.712 41.2049 270.712 43.5205V45.2822H250.506V41.5595H265.863C265.863 40.2521 265.598 39.0943 265.069 38.086C264.539 37.0667 263.795 36.2634 262.835 35.6762C261.886 35.089 260.772 34.7954 259.492 34.7954C258.102 34.7954 256.888 35.1389 255.851 35.8258C254.825 36.5017 254.031 37.388 253.468 38.4849C252.916 39.5707 252.641 40.7507 252.641 42.0248V44.9332C252.641 46.6394 252.938 48.0909 253.534 49.2874C254.141 50.484 254.985 51.3981 256.066 52.0296C257.147 52.6501 258.411 52.9603 259.856 52.9603C260.794 52.9603 261.649 52.8274 262.421 52.5615C263.193 52.2845 263.861 51.8745 264.423 51.3316C264.986 50.7887 265.416 50.1184 265.714 49.3207L270.398 50.1683C270.023 51.5532 269.35 52.7664 268.379 53.8079C267.419 54.8383 266.211 55.6416 264.754 56.2177C263.309 56.7828 261.66 57.0653 259.806 57.0653Z" fill="white"/>
<path d="M237.742 31.4549C237.566 29.8816 236.837 28.6628 235.558 27.7986C234.278 26.9233 232.667 26.4857 230.725 26.4857C229.335 26.4857 228.133 26.7073 227.118 27.1505C226.103 27.5826 225.314 28.1809 224.751 28.9454C224.2 29.6988 223.924 30.5574 223.924 31.5214C223.924 32.3302 224.111 33.0282 224.486 33.6154C224.873 34.2026 225.375 34.6956 225.992 35.0945C226.621 35.4823 227.294 35.8091 228.011 36.075C228.729 36.3299 229.418 36.5404 230.08 36.7066L233.39 37.5708C234.471 37.8367 235.58 38.1968 236.716 38.651C237.853 39.1053 238.906 39.7036 239.877 40.4459C240.848 41.1883 241.631 42.1079 242.227 43.2047C242.834 44.3016 243.137 45.6145 243.137 47.1435C243.137 49.0714 242.641 50.7831 241.648 52.2789C240.666 53.7746 239.237 54.9546 237.362 55.8188C235.497 56.683 233.241 57.1151 230.593 57.1151C228.056 57.1151 225.86 56.7107 224.007 55.9019C222.153 55.0931 220.702 53.9464 219.654 52.4617C218.606 50.966 218.027 49.1932 217.917 47.1435H223.047C223.146 48.3733 223.543 49.3982 224.238 50.2181C224.944 51.0269 225.843 51.6307 226.936 52.0296C228.039 52.4174 229.247 52.6113 230.56 52.6113C232.005 52.6113 233.291 52.3841 234.416 51.9299C235.552 51.4645 236.446 50.8219 237.097 50.002C237.748 49.1711 238.073 48.2016 238.073 47.0937C238.073 46.0854 237.786 45.26 237.213 44.6174C236.65 43.9748 235.883 43.4429 234.912 43.0219C233.952 42.6009 232.866 42.2297 231.652 41.9084L227.647 40.8116C224.933 40.0692 222.782 38.9779 221.193 37.5375C219.616 36.0972 218.827 34.1915 218.827 31.8205C218.827 29.8594 219.356 28.1476 220.415 26.6851C221.475 25.2226 222.909 24.087 224.718 23.2782C226.527 22.4583 228.569 22.0483 230.841 22.0483C233.136 22.0483 235.161 22.4527 236.915 23.2615C238.68 24.0704 240.07 25.1839 241.085 26.602C242.1 28.0091 242.63 29.6267 242.674 31.4549H237.742Z" fill="white"/>
</svg>
