<svg width="346" height="78" viewBox="0 0 346 78" fill="none" xmlns="http://www.w3.org/2000/svg">
<path d="M208.13 8.24813C208.13 6.09092 207.836 4.50475 207.246 3.48959C206.656 2.43214 205.477 1.90341 203.708 1.90341H202.444V0.634471H208.13C209.731 0.634471 210.931 0.86711 211.732 1.33239C212.574 1.75537 213.164 2.47444 213.501 3.48959H213.816C214.575 2.51674 215.649 1.69192 217.039 1.01515C218.429 0.338385 220.198 0 222.346 0C225.968 0 228.769 1.48043 230.748 4.4413C232.728 7.35986 233.718 11.0609 233.718 15.5445C233.718 20.0704 232.686 23.7927 230.622 26.7112C228.6 29.6298 225.631 31.0891 221.714 31.0891C220.113 31.0891 218.702 30.9199 217.481 30.5815C216.259 30.2431 215.038 29.7778 213.816 29.1857V42.5096H208.13V8.24813ZM219.818 28.5512C222.514 28.5512 224.494 27.3669 225.757 24.9982C227.063 22.6295 227.716 19.4783 227.716 15.5445C227.716 11.6531 227.105 8.52306 225.884 6.15437C224.662 3.74338 222.851 2.53788 220.45 2.53788C217.628 2.53788 215.417 3.80682 213.816 6.34471V26.6478C215.08 27.24 216.175 27.7052 217.102 28.0436C218.028 28.382 218.934 28.5512 219.818 28.5512Z" fill="white"/>
<path d="M183.841 31.0891C182.493 31.0891 181.124 30.8141 179.734 30.2643C178.345 29.6721 177.144 28.7204 176.133 27.4091C175.165 26.0979 174.68 24.3637 174.68 22.2065C174.68 18.9918 176.154 16.7077 179.103 15.3542C182.093 14.0007 185.989 13.3239 190.791 13.3239H192.686C192.686 9.17868 192.117 6.34471 190.98 4.82198C189.843 3.29925 188.2 2.53788 186.052 2.53788C184.157 2.53788 182.641 2.93971 181.503 3.74338C180.366 4.54704 179.566 5.94288 179.103 7.93089H176.26C176.26 6.49275 176.344 5.37186 176.512 4.56819C176.681 3.72223 177.123 2.93972 177.839 2.22065C178.597 1.45928 179.84 0.909409 181.567 0.571025C183.336 0.190342 185.252 0 187.316 0C190.728 0 193.423 0.930559 195.403 2.79167C197.382 4.61049 198.372 8.12123 198.372 13.3239V30.4546H195.213L193.002 27.5995H192.686C191.928 28.5723 190.812 29.3972 189.338 30.0739C187.863 30.7507 186.031 31.0891 183.841 31.0891ZM186.684 28.234C188.074 28.234 189.232 27.8956 190.159 27.2188C191.086 26.542 191.928 25.6115 192.686 24.4271V15.8618H190.791C187.674 15.8618 185.21 16.4539 183.399 17.6383C181.588 18.7803 180.682 20.3031 180.682 22.2065C180.682 24.1522 181.251 25.6538 182.388 26.7112C183.567 27.7264 184.999 28.234 186.684 28.234Z" fill="white"/>
<path d="M156.663 43.144C152.409 43.144 149.018 42.3615 146.491 40.7965C144.006 39.2315 142.764 36.7359 142.764 33.3097C142.764 31.364 143.417 29.6721 144.722 28.234C146.028 26.7958 147.692 25.7384 149.713 25.0616C148.029 24.1311 147.186 22.8621 147.186 21.2548C147.186 20.4088 147.376 19.7532 147.755 19.2879C148.134 18.8226 148.681 18.3151 149.397 17.7652C148.05 17.0884 146.912 16.031 145.986 14.5928C145.101 13.1547 144.659 11.4628 144.659 9.51707C144.659 3.17236 148.66 0 156.663 0H168.351V1.58618L164.244 2.22065V2.53788C165.55 3.21465 166.603 4.16636 167.403 5.393C168.246 6.57735 168.667 7.95204 168.667 9.51707C168.667 15.8618 164.666 19.0341 156.663 19.0341C152.24 19.0341 150.029 19.7743 150.029 21.2548C150.029 22.7352 152.24 23.4754 156.663 23.4754C160.749 23.4754 164.076 24.3002 166.645 25.9499C169.257 27.5572 170.562 30.0105 170.562 33.3097C170.562 36.7359 169.299 39.2315 166.772 40.7965C164.287 42.3615 160.917 43.144 156.663 43.144ZM156.663 16.8135C158.558 16.8135 160.075 16.2425 161.212 15.1004C162.391 13.9161 162.981 12.055 162.981 9.51707C162.981 7.10608 162.391 5.28726 161.212 4.06062C160.075 2.83397 158.558 2.22065 156.663 2.22065C154.768 2.22065 153.23 2.81282 152.051 3.99717C150.914 5.13922 150.345 6.97918 150.345 9.51707C150.345 12.055 150.914 13.9161 152.051 15.1004C153.23 16.2425 154.768 16.8135 156.663 16.8135ZM156.663 40.6061C159.19 40.6061 161.191 39.9928 162.665 38.7662C164.139 37.5818 164.876 35.763 164.876 33.3097C164.876 29.0799 162.349 26.6478 157.295 26.0133L153.82 25.6961C152.093 26.3728 150.766 27.3246 149.84 28.5512C148.913 29.7778 148.45 31.364 148.45 33.3097C148.45 35.763 149.187 37.5818 150.661 38.7662C152.135 39.9928 154.136 40.6061 156.663 40.6061Z" fill="white"/>
<path d="M339.99 43.1044C339.99 40.9472 339.695 39.361 339.105 38.3458C338.516 37.2884 337.336 36.7597 335.567 36.7597H334.304V35.4907H339.99C341.548 35.4907 342.706 35.7022 343.465 36.1252C344.265 36.5059 344.833 37.2249 345.17 38.2824C345.507 39.3398 345.676 40.9472 345.676 43.1044V77.3658H339.99V43.1044Z" fill="white"/>
<path d="M320.45 78.0002C317.586 78.0002 315.164 77.3234 313.185 75.9699C311.205 74.5741 309.71 72.713 308.699 70.3866C307.688 68.0179 307.183 65.3742 307.183 62.4557C307.183 59.5794 307.688 56.9569 308.699 54.5882C309.71 52.2195 311.163 50.3584 313.058 49.0049C314.996 47.6091 317.249 46.9111 319.818 46.9111C324.072 46.9111 327.231 48.1166 329.295 50.5276C331.401 52.8963 332.454 56.3436 332.454 60.8695L332.328 63.4074H313.185C313.185 66.9604 313.943 69.8578 315.459 72.0996C316.975 74.3414 319.06 75.4623 321.714 75.4623C323.693 75.4623 325.357 75.0394 326.705 74.1934C328.095 73.3474 329.379 72.0785 330.559 70.3866L331.822 71.3383C330.432 73.6647 328.811 75.3566 326.958 76.414C325.104 77.4715 322.935 78.0002 320.45 78.0002ZM326.452 60.8695C326.452 57.1473 325.905 54.3133 324.809 52.3676C323.714 50.4219 322.051 49.449 319.818 49.449C318.555 49.449 317.418 49.9566 316.407 50.9717C315.396 51.9446 314.596 53.2981 314.006 55.0324C313.458 56.7666 313.185 58.7123 313.185 60.8695H326.452Z" fill="white"/>
<path d="M275.47 55.1593C275.47 53.0021 275.175 51.4159 274.585 50.4007C273.996 49.3433 272.816 48.8145 271.047 48.8145H269.784V47.5456H275.47C277.028 47.5456 278.208 47.7571 279.008 48.1801C279.85 48.6031 280.461 49.2375 280.84 50.0835H281.156C282.04 49.1952 283.178 48.455 284.567 47.8628C286 47.2284 287.6 46.9111 289.369 46.9111C292.528 46.9111 295.097 47.7571 297.077 49.449C299.099 51.1409 300.109 54.1018 300.109 58.3316V77.3657H294.423V58.3316C294.423 55.3707 293.749 53.2135 292.402 51.86C291.096 50.4642 289.453 49.7663 287.474 49.7663C285.241 49.7663 283.135 50.8872 281.156 53.1289V77.3657H275.47V55.1593Z" fill="white"/>
<path d="M262.323 43.739C261.354 43.739 260.512 43.3371 259.796 42.5335C259.122 41.7298 258.785 40.7781 258.785 39.6784C258.785 38.7901 259.038 38.0922 259.543 37.5846C260.091 37.077 260.807 36.8232 261.691 36.8232C262.66 36.8232 263.481 37.2251 264.155 38.0287C264.871 38.8324 265.229 39.7841 265.229 40.8839C265.229 41.7721 264.956 42.47 264.408 42.9776C263.903 43.4852 263.208 43.739 262.323 43.739ZM259.922 55.1595C259.922 53.0023 259.628 51.4161 259.038 50.4009C258.448 49.3435 257.269 48.8147 255.5 48.8147H254.236V47.5458H259.922C261.481 47.5458 262.639 47.7573 263.397 48.1803C264.197 48.561 264.766 49.28 265.103 50.3375C265.44 51.3949 265.608 53.0023 265.608 55.1595V77.3659H259.922V55.1595Z" fill="white"/>
<path d="M246.409 78.0005C244.051 78.0005 242.197 77.3237 240.849 75.9702C239.502 74.6166 238.828 72.544 238.828 69.7524V50.0838H234.405V47.5459H238.828V41.8356L241.987 38.0288H244.514V47.5459H252.095V50.0838H244.514V69.7524C244.514 73.5592 245.988 75.4626 248.936 75.4626C249.947 75.4626 250.79 75.3569 251.464 75.1454C252.18 74.9339 252.917 74.6166 253.675 74.1937L254.307 75.4626C253.338 76.1817 252.264 76.795 251.084 77.3026C249.905 77.7678 248.347 78.0005 246.409 78.0005Z" fill="white"/>
<path d="M204.209 55.1593C204.209 53.0021 203.914 51.4159 203.325 50.4007C202.735 49.3433 201.556 48.8145 199.787 48.8145H198.523V47.5456H204.209C205.767 47.5456 206.947 47.7571 207.747 48.1801C208.589 48.6031 209.2 49.2375 209.579 50.0835H209.895C210.78 49.1952 211.917 48.455 213.307 47.8628C214.739 47.2284 216.339 46.9111 218.108 46.9111C221.267 46.9111 223.837 47.7571 225.816 49.449C227.838 51.1409 228.849 54.1018 228.849 58.3316V77.3657H223.163V58.3316C223.163 55.3707 222.489 53.2135 221.141 51.86C219.835 50.4642 218.193 49.7663 216.213 49.7663C213.981 49.7663 211.875 50.8872 209.895 53.1289V77.3657H204.209V55.1593Z" fill="white"/>
<path d="M183.974 78.0002C181.11 78.0002 178.688 77.3234 176.709 75.9699C174.729 74.5741 173.234 72.713 172.223 70.3866C171.212 68.0179 170.707 65.3742 170.707 62.4557C170.707 59.5794 171.212 56.9569 172.223 54.5882C173.234 52.2195 174.687 50.3584 176.582 49.0049C178.52 47.6091 180.773 46.9111 183.342 46.9111C187.596 46.9111 190.755 48.1166 192.819 50.5276C194.925 52.8963 195.978 56.3436 195.978 60.8695L195.852 63.4074H176.709C176.709 66.9604 177.467 69.8578 178.983 72.0996C180.499 74.3414 182.584 75.4623 185.238 75.4623C187.217 75.4623 188.881 75.0394 190.229 74.1934C191.619 73.3474 192.903 72.0785 194.083 70.3866L195.346 71.3383C193.956 73.6647 192.335 75.3566 190.481 76.414C188.628 77.4715 186.459 78.0002 183.974 78.0002ZM189.976 60.8695C189.976 57.1473 189.428 54.3133 188.333 52.3676C187.238 50.4219 185.575 49.449 183.342 49.449C182.079 49.449 180.941 49.9566 179.931 50.9717C178.92 51.9446 178.119 53.2981 177.53 55.0324C176.982 56.7666 176.709 58.7123 176.709 60.8695H189.976Z" fill="white"/>
<path d="M154.136 78.0002C149.292 78.0002 146.028 77.1543 144.343 75.4623C143.627 74.7433 143.185 73.9396 143.016 73.0513C142.848 72.1208 142.764 70.7038 142.764 68.8004H144.027C144.406 70.9153 145.312 72.5649 146.744 73.7493C148.218 74.8913 150.261 75.4623 152.872 75.4623C155.189 75.4623 156.916 75.0605 158.053 74.2568C159.232 73.4532 159.822 72.3746 159.822 71.021C159.822 69.7944 159.359 68.7369 158.432 67.8487C157.547 66.9604 156.115 66.1145 154.136 65.3108L150.345 63.7246C147.818 62.7095 145.923 61.5251 144.659 60.1716C143.395 58.818 142.764 57.1473 142.764 55.1593C142.764 52.5791 143.732 50.5699 145.67 49.1318C147.607 47.6513 150.113 46.9111 153.188 46.9111C157.821 46.9111 160.98 47.7571 162.665 49.449C163.381 50.1681 163.823 50.9717 163.992 51.86C164.16 52.7483 164.244 54.1653 164.244 56.111H162.981C162.644 53.9961 161.759 52.3676 160.327 51.2255C158.895 50.0412 156.937 49.449 154.452 49.449C152.472 49.449 150.914 49.872 149.776 50.718C148.681 51.5216 148.134 52.5791 148.134 53.8903C148.134 56.0898 149.819 57.8875 153.188 59.2833L156.979 60.8695C159.843 62.0538 161.928 63.3228 163.234 64.6763C164.539 65.9876 165.192 67.6795 165.192 69.7521C165.192 72.3323 164.16 74.3626 162.096 75.843C160.032 77.2811 157.379 78.0002 154.136 78.0002Z" fill="white"/>
<path d="M33.5709 0.00714646C47.9035 -0.32372 59.2979 10.8995 62.4402 20.1169L61.6829 20.9371C56.5768 17.5109 50.8532 14.4045 35.3384 14.4045C12.5571 14.4045 1.95208 28.013 1.95208 40.6354C1.95208 46.5521 4.30876 55.23 14.7174 55.23C29.0539 55.23 52.0183 31.533 59.8871 22.8852C70.2958 11.4462 80.1153 2.96549 96.0228 2.96549C118.411 2.96549 129.213 21.8991 129.213 38.466C129.213 55.0328 118.804 71.5997 101.915 71.5997C84.2394 71.5997 76.3839 56.0118 75.4019 53.2506L76.2917 51.8259C78.9695 54.587 89.1492 60.7523 101.915 60.7523C120.964 60.7523 127.642 47.341 127.642 38.466C127.642 35.1131 126.07 21.8991 110.948 21.8991C94.6481 21.8991 86.2033 36.0993 76.3839 51.68C66.5644 67.2608 52.6207 77.9109 33.5709 77.9109C14.521 77.9109 0.18457 62.5273 0.18457 40.6354C0.18457 13.2211 16.4849 0.401571 33.5709 0.00714646Z" fill="url(#paint0_linear_1104_8426)"/>
<path d="M33.5757 77.9112C14.5259 77.9112 0.190655 62.5276 0.189453 40.6357C0.774404 51.0814 6.0727 61.1399 19.8242 61.1399C37.3029 60.351 52.4207 42.4035 58.9058 34.5146C65.3909 26.6256 80.1201 2.96582 96.0277 2.96582C118.416 2.96582 129.218 21.1033 129.218 38.4663C129.218 33.5284 124.308 16.3699 108.007 16.3699C91.7071 16.3699 83.4546 30.7673 73.6351 46.348C63.8156 61.9288 48.1044 77.9112 33.5757 77.9112Z" fill="white"/>
<defs>
<linearGradient id="paint0_linear_1104_8426" x1="129.409" y1="-24.0614" x2="-16.4817" y2="109.04" gradientUnits="userSpaceOnUse">
<stop stop-color="#E6E6E6"/>
<stop offset="0.342172" stop-color="#F5F5F5"/>
<stop offset="0.603525" stop-color="#F5F5F5"/>
<stop offset="1" stop-color="#E6E6E6"/>
</linearGradient>
</defs>
</svg>
